<?xml version="1.0" encoding="UTF-8"?>
<svg id="Layer_3" xmlns="http://www.w3.org/2000/svg" viewBox="0 0 2095.2 908.97">
  <defs>
    <style>
      .cls-1 {
        stroke-miterlimit: 10;
      }

      .cls-1, .cls-2 {
        fill: none;
        stroke: #000;
        stroke-width: 78px;
      }

      .cls-2 {
        stroke-linejoin: bevel;
      }
    </style>
  </defs>
  <path class="cls-1" d="M255,238.29l-4.16,304.68,100.73,1c71.75,0,138-58.21,139.19-129.94.05-2.84.02-4.82,0-6.41-1.72-96.04-70.06-172.06-166.1-170.37l-69.66,1.04Z"/>
  <path class="cls-1" d="M1615.56,238.29l-4.16,304.68,100.73,1c71.75,0,138-58.21,139.19-129.94.05-2.84.02-4.82,0-6.41-1.72-96.04-70.06-172.06-166.1-170.37l-69.66,1.04Z"/>
  <path class="cls-1" d="M794.4,553.55h-201.01V234.69h201.43M593.96,396.97h179.08"/>
  <path class="cls-1" d="M1551.45,553.55h-201.01V234.69h201.43M1351.02,396.97h179.08"/>
  <polyline class="cls-2" points="840.54 201.92 841.53 210.37 992.93 579.27 1088.17 364.61"/>
  <path class="cls-2" d="M1317.1,316.02c0-32.96-9.77-46.02-29.91-59.89-20.14-13.87-46.17-19.24-71.41-18.87-30.09.45-61.25,9.4-81.54,29.64-20.29,20.24-26.67,53.01-9.83,75.73,12.44,16.78,34.31,25.35,55.38,31.85,34.29,10.58,70.26,18.24,100.99,35.68,30.73,17.44,48.27,47.74,45.43,80.61-2.6,30.05-21.13,55.66-52.14,66.18-31.01,10.52-59.02,10.51-90.96,2.6-26.13-6.48-39.46-14.86-58.5-32.39-23.92-22.03-27.91-53.97-27.91-79.59"/>
</svg>