<svg xmlns="http://www.w3.org/2000/svg" viewBox="0 10.279999732971191 172.8000030517578 44.92000198364258" data-asc="0.9052734375"><g fill="#000000"><g fill="#000000" transform="translate(0, 0)"><path d="M18.26 35.77L22.58 36.33Q21.88 40.80 18.96 43.32Q16.04 45.85 11.79 45.85Q6.47 45.85 3.23 42.37Q0 38.89 0 32.40Q0 28.20 1.39 25.05Q2.78 21.90 5.63 20.32Q8.47 18.75 11.82 18.75Q16.04 18.75 18.73 20.89Q21.41 23.02 22.17 26.95L17.90 27.61Q17.29 25 15.73 23.68Q14.18 22.36 11.99 22.36Q8.67 22.36 6.59 24.74Q4.52 27.12 4.52 32.28Q4.52 37.50 6.52 39.87Q8.52 42.24 11.74 42.24Q14.33 42.24 16.06 40.65Q17.80 39.06 18.26 35.77ZM24.71 32.30Q24.71 25.10 28.71 21.63Q32.06 18.75 36.87 18.75Q42.21 18.75 45.61 22.25Q49.00 25.76 49.00 31.93Q49.00 36.94 47.50 39.81Q46.00 42.68 43.13 44.26Q40.26 45.85 36.87 45.85Q31.42 45.85 28.06 42.36Q24.71 38.87 24.71 32.30M29.22 32.30Q29.22 37.28 31.40 39.76Q33.57 42.24 36.87 42.24Q40.14 42.24 42.31 39.75Q44.48 37.26 44.48 32.15Q44.48 27.34 42.30 24.87Q40.11 22.39 36.87 22.39Q33.57 22.39 31.40 24.85Q29.22 27.32 29.22 32.30ZM54.15 45.26L54.15 19.34L58.11 19.34L58.11 23.02Q60.96 18.75 66.36 18.75Q68.70 18.75 70.67 19.59Q72.63 20.43 73.61 21.80Q74.58 23.17 74.98 25.05Q75.22 26.27 75.22 29.32L75.22 45.26L70.83 45.26L70.83 29.49Q70.83 26.81 70.31 25.48Q69.80 24.15 68.49 23.35Q67.19 22.56 65.43 22.56Q62.62 22.56 60.58 24.34Q58.54 26.12 58.54 31.10L58.54 45.26L54.15 45.26ZM98.88 35.77L103.20 36.33Q102.49 40.80 99.57 43.32Q96.66 45.85 92.41 45.85Q87.08 45.85 83.85 42.37Q80.62 38.89 80.62 32.40Q80.62 28.20 82.01 25.05Q83.40 21.90 86.24 20.32Q89.09 18.75 92.43 18.75Q96.66 18.75 99.34 20.89Q102.03 23.02 102.78 26.95L98.51 27.61Q97.90 25 96.35 23.68Q94.80 22.36 92.60 22.36Q89.28 22.36 87.21 24.74Q85.13 27.12 85.13 32.28Q85.13 37.50 87.13 39.87Q89.14 42.24 92.36 42.24Q94.95 42.24 96.68 40.65Q98.41 39.06 98.88 35.77ZM124.71 36.91L129.25 37.48Q128.17 41.46 125.27 43.65Q122.36 45.85 117.85 45.85Q112.16 45.85 108.83 42.35Q105.49 38.84 105.49 32.52Q105.49 25.98 108.86 22.36Q112.23 18.75 117.60 18.75Q122.80 18.75 126.10 22.29Q129.39 25.83 129.39 32.25Q129.39 32.64 129.37 33.42L110.03 33.42Q110.28 37.70 112.45 39.97Q114.62 42.24 117.87 42.24Q120.29 42.24 122.00 40.97Q123.71 39.70 124.71 36.91M110.28 29.81L124.76 29.81Q124.46 26.54 123.10 24.90Q121.00 22.36 117.65 22.36Q114.62 22.36 112.56 24.39Q110.50 26.42 110.28 29.81ZM134.77 55.20L134.77 19.34L138.77 19.34L138.77 22.71Q140.19 20.73 141.97 19.74Q143.75 18.75 146.29 18.75Q149.61 18.75 152.15 20.46Q154.69 22.17 155.98 25.28Q157.28 28.39 157.28 32.10Q157.28 36.08 155.85 39.27Q154.42 42.46 151.70 44.15Q148.97 45.85 145.97 45.85Q143.77 45.85 142.03 44.92Q140.28 43.99 139.16 42.58L139.16 55.20L134.77 55.20M138.75 32.45Q138.75 37.45 140.77 39.84Q142.80 42.24 145.68 42.24Q148.61 42.24 150.70 39.76Q152.78 37.28 152.78 32.08Q152.78 27.12 150.74 24.66Q148.71 22.19 145.87 22.19Q143.07 22.19 140.91 24.82Q138.75 27.44 138.75 32.45ZM172.17 41.33L172.80 45.21Q170.95 45.61 169.48 45.61Q167.09 45.61 165.77 44.85Q164.45 44.09 163.92 42.86Q163.38 41.63 163.38 37.67L163.38 22.75L160.16 22.75L160.16 19.34L163.38 19.34L163.38 12.92L167.75 10.28L167.75 19.34L172.17 19.34L172.17 22.75L167.75 22.75L167.75 37.92Q167.75 39.79 167.98 40.33Q168.21 40.87 168.74 41.19Q169.26 41.50 170.24 41.50Q170.97 41.50 172.17 41.33Z"/></g></g></svg>